<?xml version="1.0" standalone="no"?><!DOCTYPE svg PUBLIC "-//W3C//DTD SVG 1.1//EN" "http://www.w3.org/Graphics/SVG/1.1/DTD/svg11.dtd"><svg t="1509518269528" class="icon" style="" viewBox="0 0 1024 1024" version="1.1" xmlns="http://www.w3.org/2000/svg" p-id="7073" xmlns:xlink="http://www.w3.org/1999/xlink" width="144" height="144"><defs><style type="text/css"></style></defs><path d="M220.880643 161.457252l47.25628 0L547.380812 161.457252c74.464969 0 131.10292 16.154935 169.932274 48.450479 38.822191 32.302707 58.235332 79.640852 58.235332 142.008294 0 61.420885-20.212344 109.47432-60.622706 144.157237-10.18906 8.591679-21.167089 16.229636-32.936133 22.911826l15.751752 7.637957c42.640146 24.508183 64.753793 65.715701 66.350151 123.630738l3.818979 127.927601c0.63445 21.00336 3.341095 36.120662 8.114818 45.347814 4.773723 9.234315 13.999852 17.184381 27.685549 23.86657l0 15.274892L686.920892 862.670661c-2.551102-5.728468-5.095042-20.683065-7.629771-44.86993-2.543939-24.179702-4.453429-51.075259-5.720282-80.670298l-2.134617-55.371098c-1.27504-43.594891-11.933797-74.703399-31.973202-93.320409-20.041452-18.614963-52.80567-27.92398-98.287537-27.92398L315.871087 560.514947l0 302.633598-47.25628 0-47.734164 0L220.880643 161.457252zM315.871087 478.412021l234.851842 0c43.915186 0 76.05314-9.622148 96.42205-28.878724 20.360723-19.250436 30.549783-49.718355 30.549783-91.410919 0-40.410362-10.740622-70.0054-32.219819-88.785116-21.48022-18.772552-55.453986-28.163433-101.912088-28.163433L315.871087 241.173828 315.871087 478.412021z" p-id="7074" fill="#1afa29"></path></svg>